PathFileType	4	(X/Y/Z)	/Users/itak/Documents/Research/Walk-IL/dataset/trc/00332_00011.trc
DataRate	CameraRate	NumFrames	NumMarkers	Units	OrigDataRate	OrigDataStartFrame	OrigNumFrames
100.000000	100.000000	4	54	mm	100.000000	226	605
Frame#	Time	RPSI			LPSI			L3			STRN			T10			C7			CLAV			RBAK			LBAK			LSHO			LUPA			LAEL			LAOL			LWTS			LWPS			LFRA			LIFD			LHPS			LHTS			RSHO			RUPA			RAEL			RAOL			RWTS			RWPS			RFRA			RIFD			RHTS			RHPS			RBHD			LFHD			RFHD			LBHD			LHIP			RHIP			RASI			LASI			LTHI			LANK			LTIP			LTOE			LMT1			LMT5			LHEE			RKNE			RTHI			RANK			RTIP			RTOE			RMT1			RMT5			RHEE			LKNE			*53			
		X1	Y1	Z1	X2	Y2	Z2	X3	Y3	Z3	X4	Y4	Z4	X5	Y5	Z5	X6	Y6	Z6	X7	Y7	Z7	X8	Y8	Z8	X9	Y9	Z9	X10	Y10	Z10	X11	Y11	Z11	X12	Y12	Z12	X13	Y13	Z13	X14	Y14	Z14	X15	Y15	Z15	X16	Y16	Z16	X17	Y17	Z17	X18	Y18	Z18	X19	Y19	Z19	X20	Y20	Z20	X21	Y21	Z21	X22	Y22	Z22	X23	Y23	Z23	X24	Y24	Z24	X25	Y25	Z25	X26	Y26	Z26	X27	Y27	Z27	X28	Y28	Z28	X29	Y29	Z29	X30	Y30	Z30	X31	Y31	Z31	X32	Y32	Z32	X33	Y33	Z33	X34	Y34	Z34	X35	Y35	Z35	X36	Y36	Z36	X37	Y37	Z37	X38	Y38	Z38	X39	Y39	Z39	X40	Y40	Z40	X41	Y41	Z41	X42	Y42	Z42	X43	Y43	Z43	X44	Y44	Z44	X45	Y45	Z45	X46	Y46	Z46	X47	Y47	Z47	X48	Y48	Z48	X49	Y49	Z49	X50	Y50	Z50	X51	Y51	Z51	X52	Y52	Z52	X53	Y53	Z53	X54	Y54	Z54	

227	2.26	514.7195434570312	933.5346069335938	232.9861297607422	514.7023315429688	939.8426513671875	101.9667282104492	515.6529541015625	1012.637023925781	164.1408538818359	760.6256103515625	1172.971557617188	168.8646850585938	521.9520874023438	1128.504028320312	137.5175476074219	580.5240478515625	1372.509887695312	124.7312088012695	727.3846435546875	1300.765869140625	159.1195678710938	508.7508850097656	1238.688720703125	181.4838714599609	588.4586181640625	1334.799438476562	21.31967544555664	685.7781372070312	1346.434814453125	-14.61101627349854	693.9306640625	1225.00390625	-80.98069763183594	755.0887451171875	1027.175048828125	-80.11481475830078	680.95654296875	1000.55322265625	-46.79284286499023	885.4033203125	815.3058471679688	9.136903762817383	867.9996337890625	793.4894409179688	-54.05025100708008	794.37841796875	928.7233276367188	-74.78187561035156	925.9739990234375	660.8738403320312	28.67003631591797	880.2352905273438	729.0166625976562	-43.4988899230957	919.5037841796875	742.1595458984375	4.060555934906006	606.8780517578125	1352.675048828125	296.2281799316406	576.173583984375	1290.366088867188	355.8111267089844	538.5606079101562	1025.772094726562	395.7457885742188	526.0701293945312	1016.923461914062	302.7184143066406	661.2604370117188	802.8292846679688	389.0448913574219	606.9747314453125	783.9478149414062	439.4835815429688	556.3726806640625	957.2953491210938	413.8455810546875	684.0902099609375	632.043701171875	408.827880859375	690.287353515625	704.0611572265625	416.1028442382812	627.0828247070312	702.0541381835938	443.6130981445312	616.64453125	1565.626220703125	222.6915435791016	794.1275634765625	1584.655517578125	115.0610656738281	777.6790161132812	1585.8583984375	214.9642333984375	612.9522094726562	1557.760375976562	78.25724029541016	598.4564208984375	883.6882934570312	-5.135901927947998	603.354248046875	884.167236328125	338.8440551757812	703.2714233398438	917.4276733398438	291.3904113769531	720.4181518554688	906.85888671875	53.02381134033203	649.9104614257812	561.0930786132812	16.36076545715332	382.8243713378906	76.39942169189453	64.95661926269531	519.2243041992188	233.0934753417969	43.35684967041016	575.4607543945312	35.77336120605469	134.37158203125	503.9943542480469	31.85263633728027	173.9246673583984	502.4873657226562	47.99778366088867	58.62859344482422	342.473876953125	86.94033050537109	128.4185485839844	824.7916259765625	466.36572265625	325.3646545410156	737.7350463867188	708.5402221679688	352.0101928710938	893.6917724609375	52.63360977172852	311.4672241210938	870.6846923828125	356.8876342773438	322.9701843261719	1084.725952148438	38.98749923706055	250.1984558105469	1026.448608398438	43.66108703613281	212.5858459472656	994.0829467773438	30.70953559875488	323.4925231933594	841.1649169921875	54.96457290649414	265.2644348144531	648.359130859375	419.9136352539062	39.54462814331055	nan	nan	nan	
228	2.27	505.03662109375	932.4857177734375	230.7512359619141	505.3452453613281	939.323974609375	99.74296569824219	506.8777465820312	1012.089233398438	162.3256072998047	752.4224243164062	1172.13330078125	167.2423400878906	513.4518432617188	1128.105346679688	136.2701568603516	572.834228515625	1372.203979492188	123.7702026367188	719.5498046875	1300.029541015625	157.5217132568359	500.8554382324219	1238.776245117188	180.6593017578125	580.161376953125	1334.488647460938	20.22131729125977	677.3554077148438	1345.867431640625	-16.0585880279541	685.2547607421875	1224.473388671875	-82.45926666259766	747.3828125	1026.950805664062	-81.58680725097656	673.5535888671875	999.9120483398438	-47.91544342041016	880.32275390625	817.1172485351562	8.157066345214844	862.7608642578125	794.4507446289062	-54.64654922485352	787.5311279296875	928.7386474609375	-75.99810028076172	923.072998046875	663.3566284179688	28.73820304870605	876.0281982421875	729.6925048828125	-43.64330673217773	915.33935546875	744.3679809570312	3.476941585540771	599.8953247070312	1352.1611328125	295.2286682128906	569.110107421875	1289.76171875	354.7077026367188	529.6632690429688	1025.243041992188	393.0282592773438	517.1265869140625	1017.048706054688	299.8878479003906	647.3220825195312	799.3970336914062	385.8700256347656	592.5633544921875	781.9618530273438	436.2775573730469	546.2279663085938	956.4580688476562	410.8445434570312	665.1712036132812	627.972900390625	404.9427185058594	673.1460571289062	699.1810913085938	411.9119567871094	610.2935791015625	699.4244384765625	440.0296020507812	609.5692138671875	1564.927124023438	221.6245574951172	786.9527587890625	1584.007690429688	113.8470764160156	770.6188354492188	1584.970947265625	213.77099609375	605.7041015625	1557.435913085938	77.15377044677734	589.5721435546875	883.5349731445312	-7.187847137451172	593.2151489257812	883.0870971679688	336.6555786132812	693.5455932617188	916.7465209960938	289.97021484375	711.341796875	906.783935546875	51.63196563720703	642.110595703125	560.9413452148438	15.38470840454102	380.8526611328125	72.68325042724609	65.68978118896484	515.0302124023438	230.7233123779297	43.65756225585938	575.2054443359375	35.72862243652344	134.5831756591797	503.4924926757812	30.76355743408203	174.0627593994141	501.3657531738281	47.63576507568359	59.15050506591797	340.1848449707031	81.86551666259766	129.1753082275391	819.875244140625	468.4283752441406	325.4299011230469	728.765625	708.8339233398438	351.1069946289062	890.609619140625	53.47808074951172	313.1282348632812	866.2745971679688	359.0946960449219	323.5440979003906	1081.971069335938	41.8377571105957	251.9404449462891	1023.508178710938	46.70940780639648	214.3321075439453	991.37744140625	31.70483779907227	324.9786987304688	838.1092529296875	56.00692367553711	266.8985595703125	641.4644165039062	419.4863586425781	39.1899299621582	nan	nan	nan	
229	2.28	495.6319885253906	931.5932006835938	228.5962829589844	496.1983642578125	938.894775390625	97.58367919921875	498.1983337402344	1011.614440917969	160.5629119873047	744.3076782226562	1171.5107421875	165.6441802978516	505.0470275878906	1127.835083007812	135.2271728515625	565.1203002929688	1372.025756835938	122.9293899536133	711.7351684570312	1299.48583984375	155.9646148681641	493.1261901855469	1238.9287109375	180.0241394042969	571.7933959960938	1334.314819335938	19.2422046661377	668.833740234375	1345.458618164062	-17.44342041015625	676.4435424804688	1224.113037109375	-83.88779449462891	739.4197387695312	1026.846557617188	-83.08162689208984	665.9058837890625	999.4511108398438	-49.04591751098633	874.885498046875	819.0350341796875	7.126366138458252	857.1756591796875	795.5255126953125	-55.28779220581055	780.3916015625	928.8836669921875	-77.26130676269531	919.7257080078125	665.9566040039062	28.75727081298828	871.4284057617188	730.4173583984375	-43.8178596496582	910.7817993164062	746.6781005859375	2.84810996055603	593.0010986328125	1351.811767578125	294.3236083984375	562.1874389648438	1289.327392578125	353.7315368652344	520.991455078125	1024.890991210938	390.4869079589844	508.3139343261719	1017.368835449219	297.2606506347656	633.450927734375	796.1937866210938	382.6783752441406	578.3392333984375	780.2559814453125	433.1694030761719	536.3373413085938	955.8363037109375	407.9903259277344	646.0146484375	624.1594848632812	400.7993774414062	655.783203125	694.3340454101562	407.3519592285156	593.5455322265625	697.0994873046875	436.4282531738281	602.5059204101562	1564.412719726562	220.5679931640625	779.7535400390625	1583.510009765625	112.5783996582031	763.5640258789062	1584.268676757812	212.5233917236328	598.4163818359375	1557.251953125	76.06357574462891	580.8758544921875	883.4609985351562	-9.189272880554199	583.3609619140625	882.2202758789062	334.5177001953125	684.0903930664062	916.2530517578125	288.5384826660156	702.472412109375	906.8287963867188	50.24346160888672	634.5681762695312	560.86865234375	14.53588771820068	379.1470031738281	69.21669006347656	66.35889434814453	511.1171569824219	228.5730133056641	43.94685363769531	574.9345092773438	35.70786666870117	134.7616119384766	503.052978515625	29.77552795410156	174.1842956542969	500.3687744140625	47.28970336914062	59.63657379150391	338.2368774414062	77.10162353515625	129.8658294677734	814.978271484375	470.5918884277344	325.5267333984375	720.005615234375	709.2539672851562	350.291259765625	886.035400390625	54.26908493041992	314.7805786132812	861.4784545898438	361.2311401367188	324.0492858886719	1077.767578125	45.08748626708984	253.8259124755859	1019.1611328125	49.8972282409668	216.1346282958984	987.2125244140625	33.04531097412109	326.556884765625	833.5553588867188	56.8361701965332	268.5280151367188	634.859619140625	419.2032470703125	38.88679885864258	nan	nan	nan	
230	2.29	486.5202026367188	930.8726196289062	226.5445709228516	487.2664489746094	938.5525512695312	95.50657653808594	489.61279296875	1011.236511230469	158.8845977783203	736.2835083007812	1171.105224609375	164.0590515136719	496.7267456054688	1127.710571289062	134.3952026367188	557.391845703125	1371.9892578125	122.2127075195312	703.9487915039062	1299.139892578125	154.4512786865234	485.5406188964844	1239.15673828125	179.5695495605469	563.3614501953125	1334.293212890625	18.38546943664551	660.2233276367188	1345.218627929688	-18.76175880432129	667.4993286132812	1223.925659179688	-85.26042175292969	731.1990356445312	1026.857788085938	-84.60298919677734	658.0083618164062	999.1685180664062	-50.19301605224609	869.06982421875	821.0394897460938	6.05095911026001	851.2290649414062	796.7108154296875	-55.98112869262695	772.9552612304688	929.1544189453125	-78.57460784912109	915.9024047851562	668.6531372070312	28.71278190612793	866.423095703125	731.263916015625	-44.04431915283203	905.8081665039062	749.0728759765625	2.168064832687378	586.198974609375	1351.620849609375	293.51806640625	555.4137573242188	1289.052490234375	352.8869934082031	512.5474243164062	1024.700561523438	388.1434326171875	499.631103515625	1017.8662109375	294.8602905273438	619.6973876953125	793.2466430664062	379.4933166503906	564.3673095703125	778.8316040039062	430.1924743652344	526.7186889648438	955.4177856445312	405.3099975585938	626.7083129882812	620.6533203125	396.4155578613281	638.2772216796875	689.5775146484375	402.4631042480469	576.9237670898438	695.0914916992188	432.8370056152344	595.4566650390625	1564.101318359375	219.5260467529297	772.5321655273438	1583.175903320312	111.2571716308594	756.5167846679688	1583.7724609375	211.2241973876953	591.093994140625	1557.21533203125	74.99364471435547	572.3662109375	883.4580688476562	-11.12799549102783	573.852783203125	881.5916748046875	332.4605712890625	674.9317016601562	915.9588623046875	287.0842590332031	693.8070678710938	906.982666015625	48.83935165405273	627.2871704101562	560.8817749023438	13.80724430084229	377.6774291992188	66.02970886230469	66.99073028564453	507.4594116210938	226.6721038818359	44.23955917358398	574.6693115234375	35.70761108398438	134.9070892333984	502.6756591796875	28.90560913085938	174.3023529052734	499.4899597167969	46.97539520263672	60.09377670288086	336.6018981933594	72.68473052978516	130.5267333984375	810.1035766601562	472.8587341308594	325.6119079589844	711.5177001953125	709.830078125	349.5620727539062	879.7642211914062	55.04040145874023	316.3943786621094	856.2263793945312	363.2807006835938	324.4710693359375	1071.873291015625	48.62847518920898	255.8267822265625	1013.177795410156	53.09660339355469	217.9644012451172	981.3490600585938	34.71633911132812	328.2109375	827.2946166992188	57.49639129638672	270.1264343261719	628.5330200195312	419.0721435546875	38.64250564575195	nan	nan	nan	
